<?xml version="1.0" standalone="no"?>
<!DOCTYPE svg PUBLIC "-//W3C//DTD SVG 20010904//EN"
 "http://www.w3.org/TR/2001/REC-SVG-20010904/DTD/svg10.dtd">
<svg version="1.0" xmlns="http://www.w3.org/2000/svg"
 width="64.000000pt" height="63.000000pt" viewBox="0 0 64.000000 63.000000"
 preserveAspectRatio="xMidYMid meet">

<g transform="translate(0.000000,63.000000) scale(0.100000,-0.100000)"
fill="#000000" stroke="none">
<path d="M54 577 l-39 -36 35 -38 c88 -95 85 -90 65 -113 -10 -11 -16 -23 -13
-26 3 -3 48 -8 98 -11 l93 -6 -6 29 c-3 16 -9 57 -13 92 -7 65 -15 73 -46 45
-18 -16 -22 -14 -77 41 l-59 58 -38 -35z m179 -90 c9 9 18 15 21 12 2 -2 7
-35 11 -72 l7 -68 -68 7 c-38 4 -71 8 -73 10 -3 3 4 11 15 19 18 13 16 17 -43
77 l-63 63 27 28 28 27 60 -60 c57 -56 62 -59 78 -43z"/>
<path d="M478 553 c-56 -56 -57 -57 -78 -38 -11 10 -22 16 -25 13 -8 -8 -23
-172 -16 -179 8 -9 164 10 175 22 6 5 2 17 -9 29 -18 20 -18 21 39 79 l58 58
-32 37 c-18 20 -37 36 -44 36 -6 0 -37 -26 -68 -57z m62 -78 c-54 -55 -59 -63
-45 -75 23 -19 8 -27 -63 -35 l-64 -7 7 68 c4 38 9 71 11 73 2 2 12 -3 22 -12
17 -16 22 -13 77 43 l59 60 28 -27 28 -27 -60 -61z"/>
<path d="M150 263 c-47 -6 -58 -18 -36 -42 18 -20 17 -22 -38 -74 -31 -29 -56
-57 -56 -63 0 -6 16 -25 35 -44 l35 -34 60 59 c56 56 60 58 78 42 31 -28 39
-20 46 44 12 121 13 119 -41 117 -27 0 -64 -3 -83 -5z m113 -60 c-7 -84 -9
-89 -34 -68 -19 18 -21 18 -79 -40 l-60 -59 -25 24 -25 24 57 58 c51 52 56 60
45 78 -6 11 -12 22 -12 24 0 5 49 11 107 14 l32 2 -6 -57z"/>
<path d="M358 264 c-8 -13 12 -157 23 -168 5 -6 17 -2 29 9 20 18 21 18 80
-40 l60 -59 35 34 c19 19 35 39 35 44 0 6 -26 36 -57 68 -56 56 -56 58 -38 78
10 11 16 22 13 25 -9 9 -175 18 -180 9z m151 -20 c2 -2 -3 -12 -12 -22 -16
-17 -13 -22 43 -77 l60 -59 -27 -28 -27 -28 -58 57 c-51 51 -61 56 -78 46 -24
-16 -26 -12 -34 65 l-7 63 68 -7 c37 -4 70 -8 72 -10z"/>
</g>
</svg>
