<?xml version="1.0" standalone="no"?>
<!DOCTYPE svg PUBLIC "-//W3C//DTD SVG 20010904//EN"
 "http://www.w3.org/TR/2001/REC-SVG-20010904/DTD/svg10.dtd">
<svg version="1.0" xmlns="http://www.w3.org/2000/svg"
 width="64.000000pt" height="64.000000pt" viewBox="0 0 64.000000 64.000000"
 preserveAspectRatio="xMidYMid meet">

<g transform="translate(0.000000,64.000000) scale(0.100000,-0.100000)"
fill="#000000" stroke="none">
<path d="M25 608 c-6 -16 19 -185 28 -195 4 -3 17 3 30 15 l23 22 59 -60 c33
-33 64 -60 70 -60 13 0 75 62 75 75 0 5 -28 38 -62 72 l-62 63 22 23 c12 13
22 26 22 29 0 3 -28 9 -62 12 -35 4 -80 9 -100 12 -27 4 -39 2 -43 -8z m174
-24 c2 -2 -4 -13 -14 -24 -18 -20 -18 -22 48 -88 l67 -68 -30 -29 -30 -29 -63
62 c-34 34 -67 62 -71 62 -5 0 -17 -7 -27 -16 -16 -14 -18 -13 -23 13 -3 15
-8 52 -12 81 l-6 54 78 -7 c44 -4 81 -9 83 -11z"/>
<path d="M505 608 c-85 -12 -96 -20 -67 -51 l22 -23 -60 -59 c-33 -33 -60 -67
-60 -75 0 -20 51 -70 70 -70 8 0 43 28 77 62 l63 62 25 -24 c14 -13 27 -22 29
-19 6 7 24 193 19 202 -5 8 -25 8 -118 -5z m98 -85 c-3 -43 -7 -80 -9 -82 -2
-2 -12 3 -22 12 -10 10 -23 17 -28 17 -4 0 -37 -28 -71 -62 l-63 -62 -27 27
-27 27 62 63 c34 34 62 67 62 71 0 5 -7 17 -16 27 -15 17 -15 18 7 23 29 7 75
12 111 15 l28 1 -7 -77z"/>
<path d="M163 238 l-62 -62 -26 24 c-14 13 -27 21 -30 19 -9 -10 -25 -193 -17
-201 9 -9 182 10 195 22 4 3 -1 18 -12 32 l-20 25 60 59 c32 32 59 63 59 69 0
13 -62 75 -76 75 -5 0 -37 -28 -71 -62z m107 17 l24 -25 -62 -63 c-34 -34 -62
-67 -62 -71 0 -5 7 -17 15 -27 15 -15 14 -17 -7 -22 -13 -3 -49 -9 -80 -12
l-58 -7 1 33 c0 19 4 56 7 83 6 44 9 47 21 33 21 -26 32 -21 96 43 33 33 64
60 70 60 7 0 22 -11 35 -25z"/>
<path d="M372 267 c-18 -18 -32 -37 -32 -42 0 -5 28 -38 62 -72 l62 -63 -24
-25 c-13 -14 -22 -27 -19 -29 9 -9 194 -25 201 -18 9 9 -11 183 -22 195 -3 4
-18 -1 -32 -12 l-25 -20 -59 60 c-32 32 -63 59 -69 59 -6 0 -25 -15 -43 -33z
m103 -47 c33 -33 64 -60 69 -60 5 0 17 7 27 15 15 15 17 14 22 -7 3 -13 9 -49
13 -81 l7 -59 -79 7 c-44 4 -81 10 -84 12 -3 3 3 10 13 17 9 7 17 17 17 22 0
5 -27 36 -60 69 -33 33 -60 64 -60 69 0 11 40 56 50 56 3 0 32 -27 65 -60z"/>
</g>
</svg>
