<?xml version="1.0" standalone="no"?>
<!DOCTYPE svg PUBLIC "-//W3C//DTD SVG 20010904//EN"
 "http://www.w3.org/TR/2001/REC-SVG-20010904/DTD/svg10.dtd">
<svg version="1.0" xmlns="http://www.w3.org/2000/svg"
 width="512.000000pt" height="512.000000pt" viewBox="0 0 512.000000 512.000000"
 preserveAspectRatio="xMidYMid meet">

<g transform="translate(0.000000,512.000000) scale(0.100000,-0.100000)"
fill="#000000" stroke="none">
<path d="M637 4200 c-105 -18 -213 -95 -270 -192 -60 -103 -58 -42 -55 -1474
3 -1210 4 -1312 20 -1352 45 -111 133 -201 240 -245 l53 -22 1890 -3 c1207 -2
1913 1 1954 7 158 25 285 140 326 297 23 88 23 2600 0 2688 -40 155 -166 271
-321 296 -72 12 -3766 11 -3837 0z m3888 -118 l50 -24 -51 -46 c-602 -557
-1958 -1797 -1964 -1797 -5 0 -437 394 -961 875 -524 481 -975 896 -1003 921
l-50 46 31 17 c18 9 49 20 70 25 22 5 843 8 1933 8 l1895 -2 50 -23z m-3271
-811 c421 -388 766 -707 766 -711 0 -3 -213 -201 -472 -439 -260 -238 -477
-444 -483 -458 -12 -31 4 -57 38 -61 21 -3 104 69 512 442 l487 446 57 -51
c31 -29 129 -119 218 -201 98 -89 171 -148 183 -148 12 0 85 59 183 148 89 82
188 172 219 201 l57 52 486 -446 c409 -374 491 -446 512 -443 34 4 50 30 38
62 -6 13 -221 218 -480 455 -258 237 -471 434 -473 439 -3 9 1525 1415 1543
1420 6 1 22 -21 36 -49 l24 -52 0 -1321 0 -1321 -27 -51 c-36 -68 -81 -112
-148 -143 l-55 -26 -1915 0 -1915 0 -67 33 c-68 33 -97 63 -139 142 l-24 45 0
1321 0 1321 24 52 c14 28 30 50 36 49 7 -2 357 -320 779 -707z"/>
</g>
</svg>
